<?xml version="1.0" encoding="UTF-8" standalone="no"?>
<!DOCTYPE svg PUBLIC "-//W3C//DTD SVG 1.1//EN"
 "http://www.w3.org/Graphics/SVG/1.1/DTD/svg11.dtd">
<!-- Generated by graphviz version 15.1.0 (20260618.0150)
 -->
<!-- Title: MgOSiO2_System Pages: 1 -->
<svg width="2681pt" height="528pt"
 viewBox="0.00 0.00 2681.00 528.00" xmlns="http://www.w3.org/2000/svg" xmlns:xlink="http://www.w3.org/1999/xlink">
<g id="graph0" class="graph" transform="scale(1 1) rotate(0) translate(4 524.46)">
<title>MgOSiO2_System</title>
<polygon fill="white" stroke="none" points="-4,4 -4,-524.46 2676.72,-524.46 2676.72,4 -4,4"/>
<text xml:space="preserve" text-anchor="middle" x="1336.36" y="-501.26" font-family="Microsoft YaHei" font-size="16.00">黑滑石 MgO&#45;SiO₂(&#45;C&#45;H₂O) 物相&#45;应用体系树</text>
<text xml:space="preserve" text-anchor="middle" x="1336.36" y="-478.76" font-family="Microsoft YaHei" font-size="16.00">0.1.18 | 2026&#45;07&#45;01</text>
<!-- raw_black_talc -->
<g id="node1" class="node">
<title>raw_black_talc</title>
<path fill="#2c3e50" stroke="black" stroke-width="2" d="M1927.1,-468.21C1927.1,-468.21 1804.25,-468.21 1804.25,-468.21 1798.25,-468.21 1792.25,-462.21 1792.25,-456.21 1792.25,-456.21 1792.25,-435.81 1792.25,-435.81 1792.25,-429.81 1798.25,-423.81 1804.25,-423.81 1804.25,-423.81 1927.1,-423.81 1927.1,-423.81 1933.1,-423.81 1939.1,-429.81 1939.1,-435.81 1939.1,-435.81 1939.1,-456.21 1939.1,-456.21 1939.1,-462.21 1933.1,-468.21 1927.1,-468.21"/>
<text xml:space="preserve" text-anchor="middle" x="1865.67" y="-450.56" font-family="Microsoft YaHei" font-size="11.00" fill="white">黑滑石原矿</text>
<text xml:space="preserve" text-anchor="middle" x="1865.67" y="-435.56" font-family="Microsoft YaHei" font-size="11.00" fill="white">Mg₃Si₄O₁₀(OH)₂ + &lt;1%C</text>
</g>
<!-- enstatite_from_talc -->
<g id="node2" class="node">
<title>enstatite_from_talc</title>
<path fill="#ecf0f1" stroke="#34495e" d="M870.97,-362.21C870.97,-362.21 738.38,-362.21 738.38,-362.21 732.38,-362.21 726.38,-356.21 726.38,-350.21 726.38,-350.21 726.38,-329.81 726.38,-329.81 726.38,-323.81 732.38,-317.81 738.38,-317.81 738.38,-317.81 870.97,-317.81 870.97,-317.81 876.97,-317.81 882.97,-323.81 882.97,-329.81 882.97,-329.81 882.97,-350.21 882.97,-350.21 882.97,-356.21 876.97,-362.21 870.97,-362.21"/>
<text xml:space="preserve" text-anchor="middle" x="804.67" y="-344.56" font-family="Microsoft YaHei" font-size="11.00" fill="#2c3e50">顽火辉石（滑石热解产物）</text>
<text xml:space="preserve" text-anchor="middle" x="804.67" y="-329.56" font-family="Microsoft YaHei" font-size="11.00" fill="#2c3e50">MgSiO₃</text>
</g>
<!-- raw_black_talc&#45;&gt;enstatite_from_talc -->
<g id="edge1" class="edge">
<title>raw_black_talc&#45;&gt;enstatite_from_talc</title>
<path fill="none" stroke="#e74c3c" d="M1791.27,-444.08C1661.31,-441.74 1384.71,-433.64 1152.92,-405.81 1064.39,-395.19 964.43,-375.81 894.39,-361"/>
<polygon fill="#e74c3c" stroke="#e74c3c" points="895.4,-357.64 884.89,-358.98 893.94,-364.48 895.4,-357.64"/>
<text xml:space="preserve" text-anchor="middle" x="1258.3" y="-397.21" font-family="Microsoft YaHei" font-size="9.00" fill="#c0392b">850&#45;1000°C 煅烧→顽火辉石</text>
<text xml:space="preserve" text-anchor="middle" x="1258.3" y="-384.46" font-family="Microsoft YaHei" font-size="9.00" fill="#c0392b">[PAPER&#45;002, PAPER&#45;004, PAPER&#45;005, PAPER&#45;006]</text>
</g>
<!-- forsterite_from_talc -->
<g id="node3" class="node">
<title>forsterite_from_talc</title>
<path fill="#ecf0f1" stroke="#34495e" d="M1383.97,-362.21C1383.97,-362.21 1251.38,-362.21 1251.38,-362.21 1245.38,-362.21 1239.38,-356.21 1239.38,-350.21 1239.38,-350.21 1239.38,-329.81 1239.38,-329.81 1239.38,-323.81 1245.38,-317.81 1251.38,-317.81 1251.38,-317.81 1383.97,-317.81 1383.97,-317.81 1389.97,-317.81 1395.97,-323.81 1395.97,-329.81 1395.97,-329.81 1395.97,-350.21 1395.97,-350.21 1395.97,-356.21 1389.97,-362.21 1383.97,-362.21"/>
<text xml:space="preserve" text-anchor="middle" x="1317.67" y="-344.56" font-family="Microsoft YaHei" font-size="11.00" fill="#2c3e50">镁橄榄石（滑石高温产物）</text>
<text xml:space="preserve" text-anchor="middle" x="1317.67" y="-329.56" font-family="Microsoft YaHei" font-size="11.00" fill="#2c3e50">Mg₂SiO₄</text>
</g>
<!-- raw_black_talc&#45;&gt;forsterite_from_talc -->
<g id="edge2" class="edge">
<title>raw_black_talc&#45;&gt;forsterite_from_talc</title>
<path fill="none" stroke="#e74c3c" d="M1791.41,-443C1681.86,-439.27 1482.6,-429.42 1415.17,-405.81 1391.98,-397.69 1368.94,-382.78 1351.09,-369.31"/>
<polygon fill="#e74c3c" stroke="#e74c3c" points="1353.49,-366.75 1343.45,-363.37 1349.19,-372.27 1353.49,-366.75"/>
<text xml:space="preserve" text-anchor="middle" x="1475.92" y="-397.21" font-family="Microsoft YaHei" font-size="9.00" fill="#c0392b">&gt;1100°C 高温煅烧→镁橄榄石</text>
<text xml:space="preserve" text-anchor="middle" x="1475.92" y="-384.46" font-family="Microsoft YaHei" font-size="9.00" fill="#c0392b">[PAPER&#45;002]</text>
</g>
<!-- separated_mgo -->
<g id="node4" class="node">
<title>separated_mgo</title>
<path fill="#ecf0f1" stroke="#34495e" d="M1569.6,-362.21C1569.6,-362.21 1425.75,-362.21 1425.75,-362.21 1419.75,-362.21 1413.75,-356.21 1413.75,-350.21 1413.75,-350.21 1413.75,-329.81 1413.75,-329.81 1413.75,-323.81 1419.75,-317.81 1425.75,-317.81 1425.75,-317.81 1569.6,-317.81 1569.6,-317.81 1575.6,-317.81 1581.6,-323.81 1581.6,-329.81 1581.6,-329.81 1581.6,-350.21 1581.6,-350.21 1581.6,-356.21 1575.6,-362.21 1569.6,-362.21"/>
<text xml:space="preserve" text-anchor="middle" x="1497.67" y="-344.56" font-family="Microsoft YaHei" font-size="11.00" fill="#2c3e50">高纯氧化镁（酸浸分离产物）</text>
<text xml:space="preserve" text-anchor="middle" x="1497.67" y="-329.56" font-family="Microsoft YaHei" font-size="11.00" fill="#2c3e50">MgO</text>
</g>
<!-- raw_black_talc&#45;&gt;separated_mgo -->
<g id="edge3" class="edge">
<title>raw_black_talc&#45;&gt;separated_mgo</title>
<path fill="none" stroke="#e74c3c" d="M1791.53,-444.93C1732.88,-442.49 1649.97,-433.68 1582.92,-405.81 1562.69,-397.4 1543.02,-383 1527.68,-369.9"/>
<polygon fill="#e74c3c" stroke="#e74c3c" points="1530.12,-367.39 1520.31,-363.4 1525.49,-372.64 1530.12,-367.39"/>
<text xml:space="preserve" text-anchor="middle" x="1635.8" y="-397.21" font-family="Microsoft YaHei" font-size="9.00" fill="#c0392b">酸浸分离→高纯MgO</text>
<text xml:space="preserve" text-anchor="middle" x="1635.8" y="-384.46" font-family="Microsoft YaHei" font-size="9.00" fill="#c0392b">[PAPER&#45;002, PAPER&#45;007]</text>
</g>
<!-- separated_sio2 -->
<g id="node5" class="node">
<title>separated_sio2</title>
<path fill="#ecf0f1" stroke="#34495e" d="M1766.22,-362.21C1766.22,-362.21 1611.12,-362.21 1611.12,-362.21 1605.12,-362.21 1599.12,-356.21 1599.12,-350.21 1599.12,-350.21 1599.12,-329.81 1599.12,-329.81 1599.12,-323.81 1605.12,-317.81 1611.12,-317.81 1611.12,-317.81 1766.22,-317.81 1766.22,-317.81 1772.22,-317.81 1778.22,-323.81 1778.22,-329.81 1778.22,-329.81 1778.22,-350.21 1778.22,-350.21 1778.22,-356.21 1772.22,-362.21 1766.22,-362.21"/>
<text xml:space="preserve" text-anchor="middle" x="1688.67" y="-344.56" font-family="Microsoft YaHei" font-size="11.00" fill="#2c3e50">高纯二氧化硅（酸浸分离产物）</text>
<text xml:space="preserve" text-anchor="middle" x="1688.67" y="-329.56" font-family="Microsoft YaHei" font-size="11.00" fill="#2c3e50">SiO₂</text>
</g>
<!-- raw_black_talc&#45;&gt;separated_sio2 -->
<g id="edge4" class="edge">
<title>raw_black_talc&#45;&gt;separated_sio2</title>
<path fill="none" stroke="#e74c3c" d="M1791.28,-434.22C1755.83,-427.64 1718.46,-418.11 1705.92,-405.81 1697.32,-397.38 1692.85,-385.17 1690.59,-373.62"/>
<polygon fill="#e74c3c" stroke="#e74c3c" points="1694.08,-373.35 1689.2,-363.95 1687.16,-374.34 1694.08,-373.35"/>
<text xml:space="preserve" text-anchor="middle" x="1758.8" y="-397.26" font-family="Microsoft YaHei" font-size="9.00" fill="#c0392b">酸浸分离→高纯SiO₂</text>
<text xml:space="preserve" text-anchor="middle" x="1758.8" y="-384.41" font-family="Microsoft YaHei" font-size="9.00" fill="#c0392b">[PAPER&#45;002, PAPER&#45;007]</text>
</g>
<!-- graphitized_carbon -->
<g id="node6" class="node">
<title>graphitized_carbon</title>
<path fill="#ecf0f1" stroke="#34495e" d="M1929.35,-362.21C1929.35,-362.21 1808,-362.21 1808,-362.21 1802,-362.21 1796,-356.21 1796,-350.21 1796,-350.21 1796,-329.81 1796,-329.81 1796,-323.81 1802,-317.81 1808,-317.81 1808,-317.81 1929.35,-317.81 1929.35,-317.81 1935.35,-317.81 1941.35,-323.81 1941.35,-329.81 1941.35,-329.81 1941.35,-350.21 1941.35,-350.21 1941.35,-356.21 1935.35,-362.21 1929.35,-362.21"/>
<text xml:space="preserve" text-anchor="middle" x="1868.67" y="-344.56" font-family="Microsoft YaHei" font-size="11.00" fill="#2c3e50">石墨化碳（黑滑石衍生）</text>
<text xml:space="preserve" text-anchor="middle" x="1868.67" y="-329.56" font-family="Microsoft YaHei" font-size="11.00" fill="#2c3e50">C (类石墨烯)</text>
</g>
<!-- raw_black_talc&#45;&gt;graphitized_carbon -->
<g id="edge5" class="edge">
<title>raw_black_talc&#45;&gt;graphitized_carbon</title>
<path fill="none" stroke="#e74c3c" d="M1832.17,-423.17C1826.9,-418.14 1822.2,-412.32 1819.17,-405.81 1814.38,-395.49 1814.22,-390.45 1819.17,-380.21 1820.8,-376.85 1822.86,-373.7 1825.22,-370.75"/>
<polygon fill="#e74c3c" stroke="#e74c3c" points="1827.65,-373.28 1832.01,-363.62 1822.58,-368.45 1827.65,-373.28"/>
<text xml:space="preserve" text-anchor="middle" x="1855.92" y="-397.21" font-family="Microsoft YaHei" font-size="9.00" fill="#c0392b">N₂气氛→碳石墨化</text>
<text xml:space="preserve" text-anchor="middle" x="1855.92" y="-384.46" font-family="Microsoft YaHei" font-size="9.00" fill="#c0392b">[PAPER&#45;002]</text>
</g>
<!-- talc_photocatalyst -->
<g id="node8" class="node">
<title>talc_photocatalyst</title>
<path fill="#27ae60" stroke="black" stroke-width="2" d="M2076.47,-362.21C2076.47,-362.21 1970.88,-362.21 1970.88,-362.21 1964.88,-362.21 1958.88,-356.21 1958.88,-350.21 1958.88,-350.21 1958.88,-329.81 1958.88,-329.81 1958.88,-323.81 1964.88,-317.81 1970.88,-317.81 1970.88,-317.81 2076.47,-317.81 2076.47,-317.81 2082.47,-317.81 2088.47,-323.81 2088.47,-329.81 2088.47,-329.81 2088.47,-350.21 2088.47,-350.21 2088.47,-356.21 2082.47,-362.21 2076.47,-362.21"/>
<text xml:space="preserve" text-anchor="middle" x="2023.67" y="-344.56" font-family="Microsoft YaHei" font-size="11.00" fill="white">黑滑石基光催化剂</text>
<text xml:space="preserve" text-anchor="middle" x="2023.67" y="-329.56" font-family="Microsoft YaHei" font-size="11.00" fill="white">TiO₂/黑滑石 复合材料</text>
</g>
<!-- raw_black_talc&#45;&gt;talc_photocatalyst -->
<g id="edge8" class="edge">
<title>raw_black_talc&#45;&gt;talc_photocatalyst</title>
<path fill="none" stroke="#2980b9" stroke-dasharray="5,2" d="M1880.48,-423.12C1891.86,-406.82 1907.01,-386.36 1915.42,-380.21 1921.5,-375.76 1933.37,-370.54 1947.09,-365.38"/>
<polygon fill="#2980b9" stroke="#2980b9" points="1948.26,-368.68 1956.46,-361.98 1945.87,-362.1 1948.26,-368.68"/>
<text xml:space="preserve" text-anchor="middle" x="2032.05" y="-397.21" font-family="Microsoft YaHei" font-size="9.00" fill="#2c3e50">TOT层状结构可限域纳米TiO₂→高效光催化降解有机污染物</text>
<text xml:space="preserve" text-anchor="middle" x="2032.05" y="-384.46" font-family="Microsoft YaHei" font-size="9.00" fill="#2c3e50">[PAPER&#45;002]</text>
</g>
<!-- talc_antibacterial -->
<g id="node9" class="node">
<title>talc_antibacterial</title>
<path fill="#27ae60" stroke="black" stroke-width="2" d="M1901.22,-44.4C1901.22,-44.4 1794.12,-44.4 1794.12,-44.4 1788.12,-44.4 1782.12,-38.4 1782.12,-32.4 1782.12,-32.4 1782.12,-12 1782.12,-12 1782.12,-6 1788.12,0 1794.12,0 1794.12,0 1901.22,0 1901.22,0 1907.22,0 1913.22,-6 1913.22,-12 1913.22,-12 1913.22,-32.4 1913.22,-32.4 1913.22,-38.4 1907.22,-44.4 1901.22,-44.4"/>
<text xml:space="preserve" text-anchor="middle" x="1847.67" y="-26.75" font-family="Microsoft YaHei" font-size="11.00" fill="white">黑滑石基抗菌材料</text>
<text xml:space="preserve" text-anchor="middle" x="1847.67" y="-11.75" font-family="Microsoft YaHei" font-size="11.00" fill="white">黑滑石+抗菌金属离子</text>
</g>
<!-- raw_black_talc&#45;&gt;talc_antibacterial -->
<g id="edge9" class="edge">
<title>raw_black_talc&#45;&gt;talc_antibacterial</title>
<path fill="none" stroke="#2980b9" stroke-dasharray="5,2" d="M1940.07,-445.32C2014.65,-443.85 2122.12,-436.3 2148.68,-405.81 2156.15,-397.23 2149.23,-391.57 2148.68,-380.21 2146.67,-339.08 2139.68,-329.18 2139.68,-288 2139.68,-288 2139.68,-288 2139.68,-127.1 2139.68,-81.48 2011.56,-50.71 1925.06,-35.13"/>
<polygon fill="#2980b9" stroke="#2980b9" points="1925.88,-31.72 1915.42,-33.43 1924.67,-38.62 1925.88,-31.72"/>
<text xml:space="preserve" text-anchor="middle" x="2273.93" y="-238.25" font-family="Microsoft YaHei" font-size="9.00" fill="#2c3e50">酸活化后八面体Mg²⁺溶出→离子交换植入Ag⁺/Cu²⁺/Zn²⁺→缓释抗菌</text>
<text xml:space="preserve" text-anchor="middle" x="2273.93" y="-225.4" font-family="Microsoft YaHei" font-size="9.00" fill="#2c3e50">[PAPER&#45;002]</text>
</g>
<!-- dehydrated_talc -->
<g id="node13" class="node">
<title>dehydrated_talc</title>
<path fill="#ecf0f1" stroke="#34495e" d="M2323.23,-362.21C2323.23,-362.21 2180.12,-362.21 2180.12,-362.21 2174.12,-362.21 2168.12,-356.21 2168.12,-350.21 2168.12,-350.21 2168.12,-329.81 2168.12,-329.81 2168.12,-323.81 2174.12,-317.81 2180.12,-317.81 2180.12,-317.81 2323.23,-317.81 2323.23,-317.81 2329.23,-317.81 2335.23,-323.81 2335.23,-329.81 2335.23,-329.81 2335.23,-350.21 2335.23,-350.21 2335.23,-356.21 2329.23,-362.21 2323.23,-362.21"/>
<text xml:space="preserve" text-anchor="middle" x="2251.68" y="-344.56" font-family="Microsoft YaHei" font-size="11.00" fill="#2c3e50">脱水滑石</text>
<text xml:space="preserve" text-anchor="middle" x="2251.68" y="-329.56" font-family="Microsoft YaHei" font-size="11.00" fill="#2c3e50">Mg₃Si₄O₁₀(OH)₂ (吸附水脱除)</text>
</g>
<!-- raw_black_talc&#45;&gt;dehydrated_talc -->
<g id="edge14" class="edge">
<title>raw_black_talc&#45;&gt;dehydrated_talc</title>
<path fill="none" stroke="#e74c3c" d="M1940.08,-440.6C2018.32,-435.08 2135.66,-424.08 2176.68,-405.81 2195.03,-397.64 2212.24,-383.44 2225.54,-370.41"/>
<polygon fill="#e74c3c" stroke="#e74c3c" points="2227.72,-373.18 2232.23,-363.59 2222.72,-368.28 2227.72,-373.18"/>
<text xml:space="preserve" text-anchor="middle" x="2245.04" y="-397.21" font-family="Microsoft YaHei" font-size="9.00" fill="#c0392b">30&#45;165°C 脱水</text>
<text xml:space="preserve" text-anchor="middle" x="2245.04" y="-384.46" font-family="Microsoft YaHei" font-size="9.00" fill="#c0392b">[PAPER&#45;005]</text>
</g>
<!-- decarbonized_talc -->
<g id="node14" class="node">
<title>decarbonized_talc</title>
<path fill="#ecf0f1" stroke="#34495e" d="M2508.23,-362.21C2508.23,-362.21 2365.12,-362.21 2365.12,-362.21 2359.12,-362.21 2353.12,-356.21 2353.12,-350.21 2353.12,-350.21 2353.12,-329.81 2353.12,-329.81 2353.12,-323.81 2359.12,-317.81 2365.12,-317.81 2365.12,-317.81 2508.23,-317.81 2508.23,-317.81 2514.23,-317.81 2520.23,-323.81 2520.23,-329.81 2520.23,-329.81 2520.23,-350.21 2520.23,-350.21 2520.23,-356.21 2514.23,-362.21 2508.23,-362.21"/>
<text xml:space="preserve" text-anchor="middle" x="2436.68" y="-344.56" font-family="Microsoft YaHei" font-size="11.00" fill="#2c3e50">脱碳滑石</text>
<text xml:space="preserve" text-anchor="middle" x="2436.68" y="-329.56" font-family="Microsoft YaHei" font-size="11.00" fill="#2c3e50">Mg₃Si₄O₁₀(OH)₂ (有机碳氧化)</text>
</g>
<!-- raw_black_talc&#45;&gt;decarbonized_talc -->
<g id="edge15" class="edge">
<title>raw_black_talc&#45;&gt;decarbonized_talc</title>
<path fill="none" stroke="#e74c3c" d="M1940.07,-444.57C2023.81,-442.57 2163.35,-434.64 2279.68,-405.81 2315.65,-396.9 2354.14,-381.12 2384.01,-367.36"/>
<polygon fill="#e74c3c" stroke="#e74c3c" points="2385.25,-370.64 2392.82,-363.23 2382.28,-364.3 2385.25,-370.64"/>
<text xml:space="preserve" text-anchor="middle" x="2400.84" y="-397.21" font-family="Microsoft YaHei" font-size="9.00" fill="#c0392b">165&#45;580°C 有机碳氧化</text>
<text xml:space="preserve" text-anchor="middle" x="2400.84" y="-384.46" font-family="Microsoft YaHei" font-size="9.00" fill="#c0392b">[PAPER&#45;005]</text>
</g>
<!-- dehydroxylated_talc -->
<g id="node15" class="node">
<title>dehydroxylated_talc</title>
<path fill="#ecf0f1" stroke="#34495e" d="M2660.73,-362.21C2660.73,-362.21 2550.62,-362.21 2550.62,-362.21 2544.62,-362.21 2538.62,-356.21 2538.62,-350.21 2538.62,-350.21 2538.62,-329.81 2538.62,-329.81 2538.62,-323.81 2544.62,-317.81 2550.62,-317.81 2550.62,-317.81 2660.73,-317.81 2660.73,-317.81 2666.73,-317.81 2672.73,-323.81 2672.73,-329.81 2672.73,-329.81 2672.73,-350.21 2672.73,-350.21 2672.73,-356.21 2666.73,-362.21 2660.73,-362.21"/>
<text xml:space="preserve" text-anchor="middle" x="2605.68" y="-344.56" font-family="Microsoft YaHei" font-size="11.00" fill="#2c3e50">脱羟基滑石（非晶化）</text>
<text xml:space="preserve" text-anchor="middle" x="2605.68" y="-329.56" font-family="Microsoft YaHei" font-size="11.00" fill="#2c3e50">Mg₃Si₄O₁₁ (非晶/半晶)</text>
</g>
<!-- raw_black_talc&#45;&gt;dehydroxylated_talc -->
<g id="edge16" class="edge">
<title>raw_black_talc&#45;&gt;dehydroxylated_talc</title>
<path fill="none" stroke="#e74c3c" d="M1939.91,-443.1C2075.16,-439.11 2356.55,-428.34 2451.68,-405.81 2487.4,-397.35 2525.45,-381.41 2554.79,-367.46"/>
<polygon fill="#e74c3c" stroke="#e74c3c" points="2555.94,-370.79 2563.42,-363.28 2552.89,-364.49 2555.94,-370.79"/>
<text xml:space="preserve" text-anchor="middle" x="2571.58" y="-397.21" font-family="Microsoft YaHei" font-size="9.00" fill="#c0392b">800&#45;900°C 脱羟基活化</text>
<text xml:space="preserve" text-anchor="middle" x="2571.58" y="-384.46" font-family="Microsoft YaHei" font-size="9.00" fill="#c0392b">[PAPER&#45;005]</text>
</g>
<!-- cordierite_ceramic -->
<g id="node7" class="node">
<title>cordierite_ceramic</title>
<path fill="#27ae60" stroke="black" stroke-width="2" d="M133.35,-256.2C133.35,-256.2 12,-256.2 12,-256.2 6,-256.2 0,-250.2 0,-244.2 0,-244.2 0,-223.8 0,-223.8 0,-217.8 6,-211.8 12,-211.8 12,-211.8 133.35,-211.8 133.35,-211.8 139.35,-211.8 145.35,-217.8 145.35,-223.8 145.35,-223.8 145.35,-244.2 145.35,-244.2 145.35,-250.2 139.35,-256.2 133.35,-256.2"/>
<text xml:space="preserve" text-anchor="middle" x="72.67" y="-238.55" font-family="Microsoft YaHei" font-size="11.00" fill="white">堇青石陶瓷（黑滑石基）</text>
<text xml:space="preserve" text-anchor="middle" x="72.67" y="-223.55" font-family="Microsoft YaHei" font-size="11.00" fill="white">Mg₂Al₄Si₅O₁₈</text>
</g>
<!-- enstatite_from_talc&#45;&gt;cordierite_ceramic -->
<g id="edge6" class="edge">
<title>enstatite_from_talc&#45;&gt;cordierite_ceramic</title>
<path fill="none" stroke="#2980b9" stroke-dasharray="5,2" d="M726.1,-339.39C552.45,-339.57 147.47,-336.04 97.67,-299.81 87.4,-292.33 81.35,-280.04 77.79,-268.15"/>
<polygon fill="#2980b9" stroke="#2980b9" points="81.21,-267.41 75.43,-258.53 74.41,-269.07 81.21,-267.41"/>
<text xml:space="preserve" text-anchor="middle" x="277.67" y="-291.2" font-family="Microsoft YaHei" font-size="9.00" fill="#2c3e50">2MgSiO₃ + 2Al₂O₃ + 3SiO₂ → Mg₂Al₄Si₅O₁₈（堇青石）：元素守恒，低膨胀+高红外辐射</text>
<text xml:space="preserve" text-anchor="middle" x="277.67" y="-278.45" font-family="Microsoft YaHei" font-size="9.00" fill="#2c3e50">[PAPER&#45;002]</text>
</g>
<!-- acid_activated_enstatite -->
<g id="node10" class="node">
<title>acid_activated_enstatite</title>
<path fill="#ecf0f1" stroke="#34495e" d="M563.97,-256.2C563.97,-256.2 431.37,-256.2 431.37,-256.2 425.37,-256.2 419.37,-250.2 419.37,-244.2 419.37,-244.2 419.37,-223.8 419.37,-223.8 419.37,-217.8 425.37,-211.8 431.37,-211.8 431.37,-211.8 563.97,-211.8 563.97,-211.8 569.97,-211.8 575.97,-217.8 575.97,-223.8 575.97,-223.8 575.97,-244.2 575.97,-244.2 575.97,-250.2 569.97,-256.2 563.97,-256.2"/>
<text xml:space="preserve" text-anchor="middle" x="497.67" y="-238.55" font-family="Microsoft YaHei" font-size="11.00" fill="#2c3e50">酸活化顽火辉石</text>
<text xml:space="preserve" text-anchor="middle" x="497.67" y="-223.55" font-family="Microsoft YaHei" font-size="11.00" fill="#2c3e50">Mg₁₋ₓH₂ₓSiO₃ (H⁺取代Mg²⁺)</text>
</g>
<!-- enstatite_from_talc&#45;&gt;acid_activated_enstatite -->
<g id="edge10" class="edge">
<title>enstatite_from_talc&#45;&gt;acid_activated_enstatite</title>
<path fill="none" stroke="#e74c3c" d="M726.13,-335.31C631.75,-330.04 483.88,-318.84 466.92,-299.81 458.25,-290.07 461.82,-277.46 469.06,-265.95"/>
<polygon fill="#e74c3c" stroke="#e74c3c" points="471.89,-268.01 474.93,-257.86 466.22,-263.9 471.89,-268.01"/>
<text xml:space="preserve" text-anchor="middle" x="512.3" y="-291.2" font-family="Microsoft YaHei" font-size="9.00" fill="#c0392b">HCl酸活化→Mg²⁺溶出</text>
<text xml:space="preserve" text-anchor="middle" x="512.3" y="-278.45" font-family="Microsoft YaHei" font-size="9.00" fill="#c0392b">[PAPER&#45;003]</text>
</g>
<!-- black_talc_mw_ceramic -->
<g id="node12" class="node">
<title>black_talc_mw_ceramic</title>
<path fill="#27ae60" stroke="black" stroke-width="2" d="M816.97,-256.2C816.97,-256.2 696.38,-256.2 696.38,-256.2 690.38,-256.2 684.38,-250.2 684.38,-244.2 684.38,-244.2 684.38,-223.8 684.38,-223.8 684.38,-217.8 690.38,-211.8 696.38,-211.8 696.38,-211.8 816.97,-211.8 816.97,-211.8 822.97,-211.8 828.97,-217.8 828.97,-223.8 828.97,-223.8 828.97,-244.2 828.97,-244.2 828.97,-250.2 822.97,-256.2 816.97,-256.2"/>
<text xml:space="preserve" text-anchor="middle" x="756.67" y="-238.55" font-family="Microsoft YaHei" font-size="11.00" fill="white">黑滑石微波介质陶瓷</text>
<text xml:space="preserve" text-anchor="middle" x="756.67" y="-223.55" font-family="Microsoft YaHei" font-size="11.00" fill="white">MgSiO₃ + SiO₂ 复合陶瓷</text>
</g>
<!-- enstatite_from_talc&#45;&gt;black_talc_mw_ceramic -->
<g id="edge13" class="edge">
<title>enstatite_from_talc&#45;&gt;black_talc_mw_ceramic</title>
<path fill="none" stroke="#2980b9" stroke-dasharray="5,2" d="M725.91,-336.44C665.86,-332.62 590.21,-323.17 570.42,-299.81 536.93,-260.24 608.21,-244.81 672.04,-238.8"/>
<polygon fill="#2980b9" stroke="#2980b9" points="672.26,-242.3 681.92,-237.95 671.66,-235.32 672.26,-242.3"/>
<text xml:space="preserve" text-anchor="middle" x="676.55" y="-291.2" font-family="Microsoft YaHei" font-size="9.00" fill="#2c3e50">εr=5.11 + Q×f=56,782 GHz→适用于5G毫米波器件</text>
<text xml:space="preserve" text-anchor="middle" x="676.55" y="-278.45" font-family="Microsoft YaHei" font-size="9.00" fill="#2c3e50">[PAPER&#45;004]</text>
</g>
<!-- enstatite_from_talc&#45;&gt;black_talc_mw_ceramic -->
<g id="edge20" class="edge">
<title>enstatite_from_talc&#45;&gt;black_talc_mw_ceramic</title>
<path fill="none" stroke="#e74c3c" d="M798.88,-317.44C795.05,-304.56 789.48,-288.06 782.67,-274.2 781.42,-271.63 780.01,-269.04 778.53,-266.47"/>
<polygon fill="#e74c3c" stroke="#e74c3c" points="781.59,-264.75 773.36,-258.08 775.63,-268.43 781.59,-264.75"/>
<text xml:space="preserve" text-anchor="middle" x="862.85" y="-291.2" font-family="Microsoft YaHei" font-size="9.00" fill="#c0392b">Cu²⁺掺杂→抑制相变→Q×f=93600</text>
<text xml:space="preserve" text-anchor="middle" x="862.85" y="-278.45" font-family="Microsoft YaHei" font-size="9.00" fill="#c0392b">[PAPER&#45;010]</text>
</g>
<!-- camgsio4_ceramic -->
<g id="node16" class="node">
<title>camgsio4_ceramic</title>
<path fill="#27ae60" stroke="black" stroke-width="2" d="M1025.35,-256.2C1025.35,-256.2 904,-256.2 904,-256.2 898,-256.2 892,-250.2 892,-244.2 892,-244.2 892,-223.8 892,-223.8 892,-217.8 898,-211.8 904,-211.8 904,-211.8 1025.35,-211.8 1025.35,-211.8 1031.35,-211.8 1037.35,-217.8 1037.35,-223.8 1037.35,-223.8 1037.35,-244.2 1037.35,-244.2 1037.35,-250.2 1031.35,-256.2 1025.35,-256.2"/>
<text xml:space="preserve" text-anchor="middle" x="964.67" y="-238.55" font-family="Microsoft YaHei" font-size="11.00" fill="white">钙镁橄榄石微波介质陶瓷</text>
<text xml:space="preserve" text-anchor="middle" x="964.67" y="-223.55" font-family="Microsoft YaHei" font-size="11.00" fill="white">CaMgSiO₄</text>
</g>
<!-- enstatite_from_talc&#45;&gt;camgsio4_ceramic -->
<g id="edge17" class="edge">
<title>enstatite_from_talc&#45;&gt;camgsio4_ceramic</title>
<path fill="none" stroke="#e74c3c" d="M883.37,-327.64C902.51,-321.83 921.74,-313.06 936.67,-299.81 946.12,-291.42 952.5,-279.28 956.75,-267.78"/>
<polygon fill="#e74c3c" stroke="#e74c3c" points="960,-269.11 959.74,-258.52 953.34,-266.96 960,-269.11"/>
<text xml:space="preserve" text-anchor="middle" x="1020.61" y="-291.2" font-family="Microsoft YaHei" font-size="9.00" fill="#c0392b">+CaO→CaMgSiO₄ (成本降80%)</text>
<text xml:space="preserve" text-anchor="middle" x="1020.61" y="-278.45" font-family="Microsoft YaHei" font-size="9.00" fill="#c0392b">[PAPER&#45;008]</text>
</g>
<!-- li2mgsio4_ceramic -->
<g id="node17" class="node">
<title>li2mgsio4_ceramic</title>
<path fill="#27ae60" stroke="black" stroke-width="2" d="M1187.6,-256.2C1187.6,-256.2 1067.75,-256.2 1067.75,-256.2 1061.75,-256.2 1055.75,-250.2 1055.75,-244.2 1055.75,-244.2 1055.75,-223.8 1055.75,-223.8 1055.75,-217.8 1061.75,-211.8 1067.75,-211.8 1067.75,-211.8 1187.6,-211.8 1187.6,-211.8 1193.6,-211.8 1199.6,-217.8 1199.6,-223.8 1199.6,-223.8 1199.6,-244.2 1199.6,-244.2 1199.6,-250.2 1193.6,-256.2 1187.6,-256.2"/>
<text xml:space="preserve" text-anchor="middle" x="1127.67" y="-238.55" font-family="Microsoft YaHei" font-size="11.00" fill="white">Li₂MgSiO₄ 微波介质陶瓷</text>
<text xml:space="preserve" text-anchor="middle" x="1127.67" y="-223.55" font-family="Microsoft YaHei" font-size="11.00" fill="white">Li₂MgSiO₄</text>
</g>
<!-- enstatite_from_talc&#45;&gt;li2mgsio4_ceramic -->
<g id="edge18" class="edge">
<title>enstatite_from_talc&#45;&gt;li2mgsio4_ceramic</title>
<path fill="none" stroke="#e74c3c" d="M883.19,-336.09C956.28,-332 1058.72,-322.34 1091.67,-299.81 1103.1,-292 1111.27,-279.32 1116.92,-267.23"/>
<polygon fill="#e74c3c" stroke="#e74c3c" points="1120.02,-268.88 1120.66,-258.3 1113.57,-266.18 1120.02,-268.88"/>
<text xml:space="preserve" text-anchor="middle" x="1197.57" y="-291.2" font-family="Microsoft YaHei" font-size="9.00" fill="#c0392b">+Li₂CO₃→Li₂MgSiO₄+CO₂↑ (1075°C低温)</text>
<text xml:space="preserve" text-anchor="middle" x="1197.57" y="-278.45" font-family="Microsoft YaHei" font-size="9.00" fill="#c0392b">[PAPER&#45;009]</text>
</g>
<!-- refractory_brick -->
<g id="node18" class="node">
<title>refractory_brick</title>
<path fill="#27ae60" stroke="black" stroke-width="2" d="M1355.85,-256.2C1355.85,-256.2 1279.5,-256.2 1279.5,-256.2 1273.5,-256.2 1267.5,-250.2 1267.5,-244.2 1267.5,-244.2 1267.5,-223.8 1267.5,-223.8 1267.5,-217.8 1273.5,-211.8 1279.5,-211.8 1279.5,-211.8 1355.85,-211.8 1355.85,-211.8 1361.85,-211.8 1367.85,-217.8 1367.85,-223.8 1367.85,-223.8 1367.85,-244.2 1367.85,-244.2 1367.85,-250.2 1361.85,-256.2 1355.85,-256.2"/>
<text xml:space="preserve" text-anchor="middle" x="1317.67" y="-238.55" font-family="Microsoft YaHei" font-size="11.00" fill="white">镁橄榄石耐火砖</text>
<text xml:space="preserve" text-anchor="middle" x="1317.67" y="-223.55" font-family="Microsoft YaHei" font-size="11.00" fill="white">Mg₂SiO₄</text>
</g>
<!-- forsterite_from_talc&#45;&gt;refractory_brick -->
<g id="edge7" class="edge">
<title>forsterite_from_talc&#45;&gt;refractory_brick</title>
<path fill="none" stroke="#2980b9" stroke-dasharray="5,2" d="M1317.67,-317.46C1317.67,-303.19 1317.67,-284.2 1317.67,-268.04"/>
<polygon fill="#2980b9" stroke="#2980b9" points="1321.18,-268.39 1317.68,-258.39 1314.18,-268.39 1321.18,-268.39"/>
<text xml:space="preserve" text-anchor="middle" x="1467.67" y="-291.26" font-family="Microsoft YaHei" font-size="9.00" fill="#2c3e50">镁橄榄石 Mg₂SiO₄：耐火度&gt;1500°C + 低热膨胀系数→耐火砖/耐高温材料</text>
<text xml:space="preserve" text-anchor="middle" x="1467.67" y="-278.4" font-family="Microsoft YaHei" font-size="9.00" fill="#2c3e50">[PAPER&#45;002]</text>
</g>
<!-- forsterite_mw_ceramic -->
<g id="node19" class="node">
<title>forsterite_mw_ceramic</title>
<path fill="#27ae60" stroke="black" stroke-width="2" d="M1700.22,-256.2C1700.22,-256.2 1581.12,-256.2 1581.12,-256.2 1575.12,-256.2 1569.12,-250.2 1569.12,-244.2 1569.12,-244.2 1569.12,-223.8 1569.12,-223.8 1569.12,-217.8 1575.12,-211.8 1581.12,-211.8 1581.12,-211.8 1700.22,-211.8 1700.22,-211.8 1706.22,-211.8 1712.22,-217.8 1712.22,-223.8 1712.22,-223.8 1712.22,-244.2 1712.22,-244.2 1712.22,-250.2 1706.22,-256.2 1700.22,-256.2"/>
<text xml:space="preserve" text-anchor="middle" x="1640.67" y="-238.55" font-family="Microsoft YaHei" font-size="11.00" fill="white">镁橄榄石微波介质陶瓷</text>
<text xml:space="preserve" text-anchor="middle" x="1640.67" y="-223.55" font-family="Microsoft YaHei" font-size="11.00" fill="white">Mg₂SiO₄ (+ TiO₂ τf补偿)</text>
</g>
<!-- forsterite_from_talc&#45;&gt;forsterite_mw_ceramic -->
<g id="edge19" class="edge">
<title>forsterite_from_talc&#45;&gt;forsterite_mw_ceramic</title>
<path fill="none" stroke="#e74c3c" d="M1396.28,-319.27C1399.11,-318.75 1401.91,-318.26 1404.67,-317.81 1451.78,-310.13 1581.08,-329.21 1618.67,-299.81 1628.46,-292.15 1633.93,-279.94 1636.96,-268.16"/>
<polygon fill="#e74c3c" stroke="#e74c3c" points="1640.33,-269.15 1638.89,-258.66 1633.47,-267.76 1640.33,-269.15"/>
<text xml:space="preserve" text-anchor="middle" x="1730.25" y="-291.26" font-family="Microsoft YaHei" font-size="9.00" fill="#c0392b">造孔+LPD&#45;TiO₂→τf补偿 (－73→－46 ppm/°C)</text>
<text xml:space="preserve" text-anchor="middle" x="1730.25" y="-278.4" font-family="Microsoft YaHei" font-size="9.00" fill="#c0392b">[PAPER&#45;018]</text>
</g>
<!-- forsterite_tbc -->
<g id="node20" class="node">
<title>forsterite_tbc</title>
<path fill="#27ae60" stroke="black" stroke-width="2" d="M1901.47,-256.2C1901.47,-256.2 1807.88,-256.2 1807.88,-256.2 1801.88,-256.2 1795.88,-250.2 1795.88,-244.2 1795.88,-244.2 1795.88,-223.8 1795.88,-223.8 1795.88,-217.8 1801.88,-211.8 1807.88,-211.8 1807.88,-211.8 1901.47,-211.8 1901.47,-211.8 1907.47,-211.8 1913.47,-217.8 1913.47,-223.8 1913.47,-223.8 1913.47,-244.2 1913.47,-244.2 1913.47,-250.2 1907.47,-256.2 1901.47,-256.2"/>
<text xml:space="preserve" text-anchor="middle" x="1854.67" y="-238.55" font-family="Microsoft YaHei" font-size="11.00" fill="white">镁橄榄石热障涂层</text>
<text xml:space="preserve" text-anchor="middle" x="1854.67" y="-223.55" font-family="Microsoft YaHei" font-size="11.00" fill="white">Mg₂SiO₄ (APS涂层)</text>
</g>
<!-- forsterite_from_talc&#45;&gt;forsterite_tbc -->
<g id="edge21" class="edge">
<title>forsterite_from_talc&#45;&gt;forsterite_tbc</title>
<path fill="none" stroke="#e74c3c" d="M1396.26,-319.12C1399.09,-318.64 1401.9,-318.2 1404.67,-317.81 1451.47,-311.18 1791.28,-327.36 1829.67,-299.81 1840,-292.4 1846.06,-280.12 1849.61,-268.22"/>
<polygon fill="#e74c3c" stroke="#e74c3c" points="1853,-269.13 1851.96,-258.58 1846.19,-267.47 1853,-269.13"/>
<text xml:space="preserve" text-anchor="middle" x="1926.65" y="-291.2" font-family="Microsoft YaHei" font-size="9.00" fill="#c0392b">APS喷涂→TBC (&gt;830次热循环 1273K)</text>
<text xml:space="preserve" text-anchor="middle" x="1926.65" y="-278.45" font-family="Microsoft YaHei" font-size="9.00" fill="#c0392b">[PAPER&#45;019]</text>
</g>
<!-- zn_enstatite_antibacterial -->
<g id="node11" class="node">
<title>zn_enstatite_antibacterial</title>
<path fill="#27ae60" stroke="black" stroke-width="2" d="M1465.1,-150.3C1465.1,-150.3 1324.25,-150.3 1324.25,-150.3 1318.25,-150.3 1312.25,-144.3 1312.25,-138.3 1312.25,-138.3 1312.25,-117.9 1312.25,-117.9 1312.25,-111.9 1318.25,-105.9 1324.25,-105.9 1324.25,-105.9 1465.1,-105.9 1465.1,-105.9 1471.1,-105.9 1477.1,-111.9 1477.1,-117.9 1477.1,-117.9 1477.1,-138.3 1477.1,-138.3 1477.1,-144.3 1471.1,-150.3 1465.1,-150.3"/>
<text xml:space="preserve" text-anchor="middle" x="1394.67" y="-132.65" font-family="Microsoft YaHei" font-size="11.00" fill="white">Zn&#45;顽火辉石抗菌材料</text>
<text xml:space="preserve" text-anchor="middle" x="1394.67" y="-117.65" font-family="Microsoft YaHei" font-size="11.00" fill="white">Mg₁₋ₓZnₓSiO₃ (Zn²⁺晶格重建)</text>
</g>
<!-- acid_activated_enstatite&#45;&gt;zn_enstatite_antibacterial -->
<g id="edge11" class="edge">
<title>acid_activated_enstatite&#45;&gt;zn_enstatite_antibacterial</title>
<path fill="none" stroke="#e74c3c" d="M576.09,-223.59C607.1,-219.89 643.06,-215.62 675.67,-211.8 899.48,-185.6 1162.56,-155.52 1300.06,-139.86"/>
<polygon fill="#e74c3c" stroke="#e74c3c" points="1300.31,-143.35 1309.85,-138.74 1299.52,-136.4 1300.31,-143.35"/>
<text xml:space="preserve" text-anchor="middle" x="1101.49" y="-185.25" font-family="Microsoft YaHei" font-size="9.00" fill="#c0392b">ZnSO₄处理→Zn²⁺晶格重建</text>
<text xml:space="preserve" text-anchor="middle" x="1101.49" y="-172.5" font-family="Microsoft YaHei" font-size="9.00" fill="#c0392b">[PAPER&#45;003]</text>
</g>
<!-- zn_enstatite_antibacterial&#45;&gt;talc_antibacterial -->
<g id="edge12" class="edge">
<title>zn_enstatite_antibacterial&#45;&gt;talc_antibacterial</title>
<path fill="none" stroke="#2980b9" stroke-dasharray="5,2" d="M1478.03,-107.98C1561.49,-88.84 1688.91,-59.61 1770.23,-40.96"/>
<polygon fill="#2980b9" stroke="#2980b9" points="1770.95,-44.39 1779.91,-38.74 1769.38,-37.57 1770.95,-44.39"/>
<text xml:space="preserve" text-anchor="middle" x="1809.7" y="-79.35" font-family="Microsoft YaHei" font-size="9.00" fill="#2c3e50">Zn²⁺晶格重建→特定条件缓释→抑制大肠杆菌和金黄色葡萄球菌生长</text>
<text xml:space="preserve" text-anchor="middle" x="1809.7" y="-66.6" font-family="Microsoft YaHei" font-size="9.00" fill="#2c3e50">[PAPER&#45;003]</text>
</g>
</g>
</svg>
