<?xml version="1.0" encoding="UTF-8" standalone="no"?>
<!DOCTYPE svg PUBLIC "-//W3C//DTD SVG 1.1//EN"
 "http://www.w3.org/Graphics/SVG/1.1/DTD/svg11.dtd">
<!-- Generated by graphviz version 15.1.0 (20260618.0150)
 -->
<!-- Title: MgOSiO2_System Pages: 1 -->
<svg width="908pt" height="308pt"
 viewBox="0.00 0.00 908.00 308.00" xmlns="http://www.w3.org/2000/svg" xmlns:xlink="http://www.w3.org/1999/xlink">
<g id="graph0" class="graph" transform="scale(1 1) rotate(0) translate(4 304.05)">
<title>MgOSiO2_System</title>
<polygon fill="white" stroke="none" points="-4,4 -4,-304.05 903.92,-304.05 903.92,4 -4,4"/>
<text xml:space="preserve" text-anchor="middle" x="449.96" y="-280.85" font-family="Microsoft YaHei" font-size="16.00">黑滑石 MgO&#45;SiO₂(&#45;C&#45;H₂O) 物相&#45;应用体系树</text>
<text xml:space="preserve" text-anchor="middle" x="449.96" y="-258.35" font-family="Microsoft YaHei" font-size="16.00">0.1.2 | 2026&#45;06&#45;28</text>
<!-- dehydrated_talc -->
<g id="node1" class="node">
<title>dehydrated_talc</title>
<path fill="#ecf0f1" stroke="#34495e" d="M145.35,-141.9C145.35,-141.9 12,-141.9 12,-141.9 6,-141.9 0,-135.9 0,-129.9 0,-129.9 0,-109.5 0,-109.5 0,-103.5 6,-97.5 12,-97.5 12,-97.5 145.35,-97.5 145.35,-97.5 151.35,-97.5 157.35,-103.5 157.35,-109.5 157.35,-109.5 157.35,-129.9 157.35,-129.9 157.35,-135.9 151.35,-141.9 145.35,-141.9"/>
<text xml:space="preserve" text-anchor="middle" x="78.68" y="-124.25" font-family="Microsoft YaHei" font-size="11.00" fill="#2c3e50">脱水滑石</text>
<text xml:space="preserve" text-anchor="middle" x="78.68" y="-109.25" font-family="Microsoft YaHei" font-size="11.00" fill="#2c3e50">Mg₃Si₄O₁₀(OH)₂ (H₂O 脱除)</text>
</g>
<!-- decarbonized_talc -->
<g id="node2" class="node">
<title>decarbonized_talc</title>
<path fill="#ecf0f1" stroke="#34495e" d="M330.23,-141.9C330.23,-141.9 187.12,-141.9 187.12,-141.9 181.12,-141.9 175.12,-135.9 175.12,-129.9 175.12,-129.9 175.12,-109.5 175.12,-109.5 175.12,-103.5 181.12,-97.5 187.12,-97.5 187.12,-97.5 330.23,-97.5 330.23,-97.5 336.23,-97.5 342.23,-103.5 342.23,-109.5 342.23,-109.5 342.23,-129.9 342.23,-129.9 342.23,-135.9 336.23,-141.9 330.23,-141.9"/>
<text xml:space="preserve" text-anchor="middle" x="258.68" y="-124.25" font-family="Microsoft YaHei" font-size="11.00" fill="#2c3e50">脱碳滑石</text>
<text xml:space="preserve" text-anchor="middle" x="258.68" y="-109.25" font-family="Microsoft YaHei" font-size="11.00" fill="#2c3e50">Mg₃Si₄O₁₀(OH)₂ (有机碳氧化)</text>
</g>
<!-- dehydroxylated_talc -->
<g id="node3" class="node">
<title>dehydroxylated_talc</title>
<path fill="#ecf0f1" stroke="#34495e" d="M482.73,-141.9C482.73,-141.9 372.62,-141.9 372.62,-141.9 366.62,-141.9 360.62,-135.9 360.62,-129.9 360.62,-129.9 360.62,-109.5 360.62,-109.5 360.62,-103.5 366.62,-97.5 372.62,-97.5 372.62,-97.5 482.73,-97.5 482.73,-97.5 488.73,-97.5 494.73,-103.5 494.73,-109.5 494.73,-109.5 494.73,-129.9 494.73,-129.9 494.73,-135.9 488.73,-141.9 482.73,-141.9"/>
<text xml:space="preserve" text-anchor="middle" x="427.68" y="-124.25" font-family="Microsoft YaHei" font-size="11.00" fill="#2c3e50">脱羟基滑石（非晶化）</text>
<text xml:space="preserve" text-anchor="middle" x="427.68" y="-109.25" font-family="Microsoft YaHei" font-size="11.00" fill="#2c3e50">Mg₃Si₄O₁₁ (非晶/半晶)</text>
</g>
<!-- enstatite_from_talc -->
<g id="node4" class="node">
<title>enstatite_from_talc</title>
<path fill="#ecf0f1" stroke="#34495e" d="M656.97,-141.9C656.97,-141.9 524.38,-141.9 524.38,-141.9 518.38,-141.9 512.38,-135.9 512.38,-129.9 512.38,-129.9 512.38,-109.5 512.38,-109.5 512.38,-103.5 518.38,-97.5 524.38,-97.5 524.38,-97.5 656.97,-97.5 656.97,-97.5 662.97,-97.5 668.97,-103.5 668.97,-109.5 668.97,-109.5 668.97,-129.9 668.97,-129.9 668.97,-135.9 662.97,-141.9 656.97,-141.9"/>
<text xml:space="preserve" text-anchor="middle" x="590.67" y="-124.25" font-family="Microsoft YaHei" font-size="11.00" fill="#2c3e50">顽火辉石（滑石热解产物）</text>
<text xml:space="preserve" text-anchor="middle" x="590.67" y="-109.25" font-family="Microsoft YaHei" font-size="11.00" fill="#2c3e50">MgSiO₃</text>
</g>
<!-- raw_black_talc -->
<g id="node5" class="node">
<title>raw_black_talc</title>
<path fill="#2c3e50" stroke="black" stroke-width="2" d="M489.1,-247.8C489.1,-247.8 366.25,-247.8 366.25,-247.8 360.25,-247.8 354.25,-241.8 354.25,-235.8 354.25,-235.8 354.25,-215.4 354.25,-215.4 354.25,-209.4 360.25,-203.4 366.25,-203.4 366.25,-203.4 489.1,-203.4 489.1,-203.4 495.1,-203.4 501.1,-209.4 501.1,-215.4 501.1,-215.4 501.1,-235.8 501.1,-235.8 501.1,-241.8 495.1,-247.8 489.1,-247.8"/>
<text xml:space="preserve" text-anchor="middle" x="427.68" y="-230.15" font-family="Microsoft YaHei" font-size="11.00" fill="white">黑滑石原矿</text>
<text xml:space="preserve" text-anchor="middle" x="427.68" y="-215.15" font-family="Microsoft YaHei" font-size="11.00" fill="white">Mg₃Si₄O₁₀(OH)₂ + &lt;1%C</text>
</g>
<!-- raw_black_talc&#45;&gt;dehydrated_talc -->
<g id="edge1" class="edge">
<title>raw_black_talc&#45;&gt;dehydrated_talc</title>
<path fill="none" stroke="#e74c3c" d="M353.69,-213.13C317.21,-206.59 272.81,-197.31 233.93,-185.4 200.11,-175.04 163.54,-160 134.39,-147.03"/>
<polygon fill="#e74c3c" stroke="#e74c3c" points="135.94,-143.89 125.38,-142.98 133.07,-150.27 135.94,-143.89"/>
<text xml:space="preserve" text-anchor="middle" x="264.3" y="-176.85" font-family="Microsoft YaHei" font-size="9.00" fill="#c0392b">30&#45;165°C 脱水</text>
<text xml:space="preserve" text-anchor="middle" x="264.3" y="-164.1" font-family="Microsoft YaHei" font-size="9.00" fill="#c0392b">[PAPER&#45;005]</text>
</g>
<!-- raw_black_talc&#45;&gt;decarbonized_talc -->
<g id="edge2" class="edge">
<title>raw_black_talc&#45;&gt;decarbonized_talc</title>
<path fill="none" stroke="#e74c3c" d="M363.75,-202.48C352.39,-197.51 340.92,-191.8 330.68,-185.4 315.04,-175.64 299.58,-162.36 287.02,-150.38"/>
<polygon fill="#e74c3c" stroke="#e74c3c" points="289.5,-147.9 279.91,-143.41 284.6,-152.9 289.5,-147.9"/>
<text xml:space="preserve" text-anchor="middle" x="377.18" y="-176.85" font-family="Microsoft YaHei" font-size="9.00" fill="#c0392b">165&#45;580°C 有机碳氧化</text>
<text xml:space="preserve" text-anchor="middle" x="377.18" y="-164.1" font-family="Microsoft YaHei" font-size="9.00" fill="#c0392b">[PAPER&#45;005]</text>
</g>
<!-- raw_black_talc&#45;&gt;dehydroxylated_talc -->
<g id="edge3" class="edge">
<title>raw_black_talc&#45;&gt;dehydroxylated_talc</title>
<path fill="none" stroke="#e74c3c" d="M427.68,-202.57C427.68,-188.28 427.68,-169.42 427.68,-153.4"/>
<polygon fill="#e74c3c" stroke="#e74c3c" points="431.18,-153.86 427.68,-143.86 424.18,-153.86 431.18,-153.86"/>
<text xml:space="preserve" text-anchor="middle" x="474.18" y="-176.85" font-family="Microsoft YaHei" font-size="9.00" fill="#c0392b">800&#45;900°C 脱羟基活化</text>
<text xml:space="preserve" text-anchor="middle" x="474.18" y="-164.1" font-family="Microsoft YaHei" font-size="9.00" fill="#c0392b">[PAPER&#45;005]</text>
</g>
<!-- raw_black_talc&#45;&gt;enstatite_from_talc -->
<g id="edge4" class="edge">
<title>raw_black_talc&#45;&gt;enstatite_from_talc</title>
<path fill="none" stroke="#e74c3c" d="M492.6,-202.5C503.68,-197.58 514.8,-191.87 524.67,-185.4 539.37,-175.78 553.56,-162.56 564.99,-150.58"/>
<polygon fill="#e74c3c" stroke="#e74c3c" points="567.55,-152.97 571.77,-143.25 562.41,-148.22 567.55,-152.97"/>
<text xml:space="preserve" text-anchor="middle" x="616.71" y="-176.85" font-family="Microsoft YaHei" font-size="9.00" fill="#c0392b">900&#45;1000°C 相转变→顽火辉石</text>
<text xml:space="preserve" text-anchor="middle" x="616.71" y="-164.1" font-family="Microsoft YaHei" font-size="9.00" fill="#c0392b">[PAPER&#45;005]</text>
</g>
<!-- forsterite_from_talc -->
<g id="node6" class="node">
<title>forsterite_from_talc</title>
<path fill="#ecf0f1" stroke="#34495e" d="M831.97,-141.9C831.97,-141.9 699.38,-141.9 699.38,-141.9 693.38,-141.9 687.38,-135.9 687.38,-129.9 687.38,-129.9 687.38,-109.5 687.38,-109.5 687.38,-103.5 693.38,-97.5 699.38,-97.5 699.38,-97.5 831.97,-97.5 831.97,-97.5 837.97,-97.5 843.97,-103.5 843.97,-109.5 843.97,-109.5 843.97,-129.9 843.97,-129.9 843.97,-135.9 837.97,-141.9 831.97,-141.9"/>
<text xml:space="preserve" text-anchor="middle" x="765.67" y="-124.25" font-family="Microsoft YaHei" font-size="11.00" fill="#2c3e50">镁橄榄石（滑石热解产物）</text>
<text xml:space="preserve" text-anchor="middle" x="765.67" y="-109.25" font-family="Microsoft YaHei" font-size="11.00" fill="#2c3e50">Mg₂SiO₄</text>
</g>
<!-- raw_black_talc&#45;&gt;forsterite_from_talc -->
<g id="edge5" class="edge">
<title>raw_black_talc&#45;&gt;forsterite_from_talc</title>
<path fill="none" stroke="#e74c3c" d="M501.76,-204.92C504.43,-204.38 507.07,-203.87 509.68,-203.4 586.19,-189.63 611.64,-214.64 683.67,-185.4 703.48,-177.36 722.43,-163.01 737.12,-149.86"/>
<polygon fill="#e74c3c" stroke="#e74c3c" points="739.19,-152.72 744.13,-143.35 734.42,-147.59 739.19,-152.72"/>
<text xml:space="preserve" text-anchor="middle" x="766.03" y="-176.85" font-family="Microsoft YaHei" font-size="9.00" fill="#c0392b">&gt;1100°C→镁橄榄石</text>
<text xml:space="preserve" text-anchor="middle" x="766.03" y="-164.1" font-family="Microsoft YaHei" font-size="9.00" fill="#c0392b">[PAPER&#45;002]</text>
</g>
<!-- refractory_brick -->
<g id="node9" class="node">
<title>refractory_brick</title>
<path fill="lightgrey" stroke="black" d="M804.97,-36C804.97,-36 726.38,-36 726.38,-36 720.38,-36 714.38,-30 714.38,-24 714.38,-24 714.38,-12 714.38,-12 714.38,-6 720.38,0 726.38,0 726.38,0 804.97,0 804.97,0 810.97,0 816.97,-6 816.97,-12 816.97,-12 816.97,-24 816.97,-24 816.97,-30 810.97,-36 804.97,-36"/>
<text xml:space="preserve" text-anchor="middle" x="765.67" y="-15.05" font-family="Microsoft YaHei" font-size="11.00">refractory_brick</text>
</g>
<!-- forsterite_from_talc&#45;&gt;refractory_brick -->
<g id="edge6" class="edge">
<title>forsterite_from_talc&#45;&gt;refractory_brick</title>
<path fill="none" stroke="#2980b9" stroke-dasharray="5,2" d="M765.67,-97.07C765.67,-82.55 765.67,-63.28 765.67,-47.52"/>
<polygon fill="#2980b9" stroke="#2980b9" points="769.18,-47.8 765.68,-37.8 762.18,-47.8 769.18,-47.8"/>
<text xml:space="preserve" text-anchor="middle" x="832.8" y="-70.95" font-family="Microsoft YaHei" font-size="9.00" fill="#2c3e50">耐火度 &gt;1500°C + 低热膨胀系数</text>
<text xml:space="preserve" text-anchor="middle" x="832.8" y="-58.2" font-family="Microsoft YaHei" font-size="9.00" fill="#2c3e50">[PAPER&#45;002]</text>
</g>
<!-- separated_mgo -->
<g id="node7" class="node">
<title>separated_mgo</title>
<path fill="#ecf0f1" stroke="#34495e" d="M652.35,-247.8C652.35,-247.8 531,-247.8 531,-247.8 525,-247.8 519,-241.8 519,-235.8 519,-235.8 519,-215.4 519,-215.4 519,-209.4 525,-203.4 531,-203.4 531,-203.4 652.35,-203.4 652.35,-203.4 658.35,-203.4 664.35,-209.4 664.35,-215.4 664.35,-215.4 664.35,-235.8 664.35,-235.8 664.35,-241.8 658.35,-247.8 652.35,-247.8"/>
<text xml:space="preserve" text-anchor="middle" x="591.67" y="-230.15" font-family="Microsoft YaHei" font-size="11.00" fill="#2c3e50">高纯氧化镁（分离产物）</text>
<text xml:space="preserve" text-anchor="middle" x="591.67" y="-215.15" font-family="Microsoft YaHei" font-size="11.00" fill="#2c3e50">MgO</text>
</g>
<!-- separated_sio2 -->
<g id="node8" class="node">
<title>separated_sio2</title>
<path fill="#ecf0f1" stroke="#34495e" d="M826.97,-247.8C826.97,-247.8 694.38,-247.8 694.38,-247.8 688.38,-247.8 682.38,-241.8 682.38,-235.8 682.38,-235.8 682.38,-215.4 682.38,-215.4 682.38,-209.4 688.38,-203.4 694.38,-203.4 694.38,-203.4 826.97,-203.4 826.97,-203.4 832.97,-203.4 838.97,-209.4 838.97,-215.4 838.97,-215.4 838.97,-235.8 838.97,-235.8 838.97,-241.8 832.97,-247.8 826.97,-247.8"/>
<text xml:space="preserve" text-anchor="middle" x="760.67" y="-230.15" font-family="Microsoft YaHei" font-size="11.00" fill="#2c3e50">高纯二氧化硅（分离产物）</text>
<text xml:space="preserve" text-anchor="middle" x="760.67" y="-215.15" font-family="Microsoft YaHei" font-size="11.00" fill="#2c3e50">SiO₂</text>
</g>
</g>
</svg>
