<?xml version="1.0" encoding="UTF-8" standalone="no"?>
<!DOCTYPE svg PUBLIC "-//W3C//DTD SVG 1.1//EN"
 "http://www.w3.org/Graphics/SVG/1.1/DTD/svg11.dtd">
<!-- Generated by graphviz version 15.1.0 (20260618.0150)
 -->
<!-- Title: MgOSiO2_System Pages: 1 -->
<svg width="685pt" height="202pt"
 viewBox="0.00 0.00 685.00 202.00" xmlns="http://www.w3.org/2000/svg" xmlns:xlink="http://www.w3.org/1999/xlink">
<g id="graph0" class="graph" transform="scale(1 1) rotate(0) translate(4 198.15)">
<title>MgOSiO2_System</title>
<polygon fill="white" stroke="none" points="-4,4 -4,-198.15 680.6,-198.15 680.6,4 -4,4"/>
<text xml:space="preserve" text-anchor="middle" x="338.3" y="-174.95" font-family="Microsoft YaHei" font-size="16.00">黑滑石 MgO&#45;SiO₂(&#45;C&#45;H₂O) 物相&#45;应用体系树</text>
<text xml:space="preserve" text-anchor="middle" x="338.3" y="-152.45" font-family="Microsoft YaHei" font-size="16.00">0.1.1 | 2026&#45;06&#45;28</text>
<!-- dehydrated_talc -->
<g id="node1" class="node">
<title>dehydrated_talc</title>
<path fill="#ecf0f1" stroke="#34495e" d="M145.35,-44.4C145.35,-44.4 12,-44.4 12,-44.4 6,-44.4 0,-38.4 0,-32.4 0,-32.4 0,-12 0,-12 0,-6 6,0 12,0 12,0 145.35,0 145.35,0 151.35,0 157.35,-6 157.35,-12 157.35,-12 157.35,-32.4 157.35,-32.4 157.35,-38.4 151.35,-44.4 145.35,-44.4"/>
<text xml:space="preserve" text-anchor="middle" x="78.68" y="-26.75" font-family="Microsoft YaHei" font-size="11.00" fill="#2c3e50">脱水滑石</text>
<text xml:space="preserve" text-anchor="middle" x="78.68" y="-11.75" font-family="Microsoft YaHei" font-size="11.00" fill="#2c3e50">Mg₃Si₄O₁₀(OH)₂ (H₂O 脱除)</text>
</g>
<!-- decarbonized_talc -->
<g id="node2" class="node">
<title>decarbonized_talc</title>
<path fill="#ecf0f1" stroke="#34495e" d="M330.23,-44.4C330.23,-44.4 187.12,-44.4 187.12,-44.4 181.12,-44.4 175.12,-38.4 175.12,-32.4 175.12,-32.4 175.12,-12 175.12,-12 175.12,-6 181.12,0 187.12,0 187.12,0 330.23,0 330.23,0 336.23,0 342.23,-6 342.23,-12 342.23,-12 342.23,-32.4 342.23,-32.4 342.23,-38.4 336.23,-44.4 330.23,-44.4"/>
<text xml:space="preserve" text-anchor="middle" x="258.68" y="-26.75" font-family="Microsoft YaHei" font-size="11.00" fill="#2c3e50">脱碳滑石</text>
<text xml:space="preserve" text-anchor="middle" x="258.68" y="-11.75" font-family="Microsoft YaHei" font-size="11.00" fill="#2c3e50">Mg₃Si₄O₁₀(OH)₂ (有机碳氧化)</text>
</g>
<!-- dehydroxylated_talc -->
<g id="node3" class="node">
<title>dehydroxylated_talc</title>
<path fill="#ecf0f1" stroke="#34495e" d="M482.73,-44.4C482.73,-44.4 372.62,-44.4 372.62,-44.4 366.62,-44.4 360.62,-38.4 360.62,-32.4 360.62,-32.4 360.62,-12 360.62,-12 360.62,-6 366.62,0 372.62,0 372.62,0 482.73,0 482.73,0 488.73,0 494.73,-6 494.73,-12 494.73,-12 494.73,-32.4 494.73,-32.4 494.73,-38.4 488.73,-44.4 482.73,-44.4"/>
<text xml:space="preserve" text-anchor="middle" x="427.68" y="-26.75" font-family="Microsoft YaHei" font-size="11.00" fill="#2c3e50">脱羟基滑石（非晶化）</text>
<text xml:space="preserve" text-anchor="middle" x="427.68" y="-11.75" font-family="Microsoft YaHei" font-size="11.00" fill="#2c3e50">Mg₃Si₄O₁₁ (非晶/半晶)</text>
</g>
<!-- enstatite_from_talc -->
<g id="node4" class="node">
<title>enstatite_from_talc</title>
<path fill="#ecf0f1" stroke="#34495e" d="M656.97,-44.4C656.97,-44.4 524.38,-44.4 524.38,-44.4 518.38,-44.4 512.38,-38.4 512.38,-32.4 512.38,-32.4 512.38,-12 512.38,-12 512.38,-6 518.38,0 524.38,0 524.38,0 656.97,0 656.97,0 662.97,0 668.97,-6 668.97,-12 668.97,-12 668.97,-32.4 668.97,-32.4 668.97,-38.4 662.97,-44.4 656.97,-44.4"/>
<text xml:space="preserve" text-anchor="middle" x="590.67" y="-26.75" font-family="Microsoft YaHei" font-size="11.00" fill="#2c3e50">顽火辉石（滑石热解产物）</text>
<text xml:space="preserve" text-anchor="middle" x="590.67" y="-11.75" font-family="Microsoft YaHei" font-size="11.00" fill="#2c3e50">MgSiO₃</text>
</g>
<!-- raw_black_talc -->
<g id="node5" class="node">
<title>raw_black_talc</title>
<path fill="lightgrey" stroke="black" d="M378.98,-141.9C378.98,-141.9 306.38,-141.9 306.38,-141.9 300.38,-141.9 294.38,-135.9 294.38,-129.9 294.38,-129.9 294.38,-117.9 294.38,-117.9 294.38,-111.9 300.38,-105.9 306.38,-105.9 306.38,-105.9 378.98,-105.9 378.98,-105.9 384.98,-105.9 390.98,-111.9 390.98,-117.9 390.98,-117.9 390.98,-129.9 390.98,-129.9 390.98,-135.9 384.98,-141.9 378.98,-141.9"/>
<text xml:space="preserve" text-anchor="middle" x="342.68" y="-120.95" font-family="Microsoft YaHei" font-size="11.00">raw_black_talc</text>
</g>
<!-- raw_black_talc&#45;&gt;dehydrated_talc -->
<g id="edge1" class="edge">
<title>raw_black_talc&#45;&gt;dehydrated_talc</title>
<path fill="none" stroke="#e74c3c" d="M294.1,-109.6C273.24,-103.53 248.7,-95.91 226.93,-87.9 195.96,-76.51 162.19,-61.94 134.72,-49.52"/>
<polygon fill="#e74c3c" stroke="#e74c3c" points="136.44,-46.46 125.89,-45.5 133.54,-52.83 136.44,-46.46"/>
<text xml:space="preserve" text-anchor="middle" x="257.3" y="-79.35" font-family="Microsoft YaHei" font-size="9.00" fill="#c0392b">30&#45;165°C 脱水</text>
<text xml:space="preserve" text-anchor="middle" x="257.3" y="-66.6" font-family="Microsoft YaHei" font-size="9.00" fill="#c0392b">[PAPER&#45;005]</text>
</g>
<!-- raw_black_talc&#45;&gt;decarbonized_talc -->
<g id="edge2" class="edge">
<title>raw_black_talc&#45;&gt;decarbonized_talc</title>
<path fill="none" stroke="#e74c3c" d="M327.68,-105.49C322.87,-99.89 317.53,-93.64 312.68,-87.9 303.23,-76.73 292.92,-64.41 283.87,-53.55"/>
<polygon fill="#e74c3c" stroke="#e74c3c" points="286.66,-51.44 277.57,-45.99 281.28,-55.91 286.66,-51.44"/>
<text xml:space="preserve" text-anchor="middle" x="359.18" y="-79.35" font-family="Microsoft YaHei" font-size="9.00" fill="#c0392b">165&#45;580°C 有机碳氧化</text>
<text xml:space="preserve" text-anchor="middle" x="359.18" y="-66.6" font-family="Microsoft YaHei" font-size="9.00" fill="#c0392b">[PAPER&#45;005]</text>
</g>
<!-- raw_black_talc&#45;&gt;dehydroxylated_talc -->
<g id="edge3" class="edge">
<title>raw_black_talc&#45;&gt;dehydroxylated_talc</title>
<path fill="none" stroke="#e74c3c" d="M384.25,-105.56C392.18,-100.77 399.82,-94.91 405.68,-87.9 413.29,-78.78 418.32,-66.88 421.61,-55.79"/>
<polygon fill="#e74c3c" stroke="#e74c3c" points="425,-56.68 424.08,-46.13 418.22,-54.95 425,-56.68"/>
<text xml:space="preserve" text-anchor="middle" x="465.51" y="-79.35" font-family="Microsoft YaHei" font-size="9.00" fill="#c0392b">800&#45;900°C 脱羟基活化</text>
<text xml:space="preserve" text-anchor="middle" x="465.51" y="-66.6" font-family="Microsoft YaHei" font-size="9.00" fill="#c0392b">[PAPER&#45;005]</text>
</g>
<!-- raw_black_talc&#45;&gt;enstatite_from_talc -->
<g id="edge4" class="edge">
<title>raw_black_talc&#45;&gt;enstatite_from_talc</title>
<path fill="none" stroke="#e74c3c" d="M391.42,-119.69C427.3,-115.79 476.46,-107.12 515.67,-87.9 533.28,-79.27 550.08,-65.49 563.3,-52.86"/>
<polygon fill="#e74c3c" stroke="#e74c3c" points="565.73,-55.39 570.37,-45.86 560.8,-50.41 565.73,-55.39"/>
<text xml:space="preserve" text-anchor="middle" x="613.97" y="-79.35" font-family="Microsoft YaHei" font-size="9.00" fill="#c0392b">900&#45;1000°C 相转变→顽火辉石</text>
<text xml:space="preserve" text-anchor="middle" x="613.97" y="-66.6" font-family="Microsoft YaHei" font-size="9.00" fill="#c0392b">[PAPER&#45;005]</text>
</g>
</g>
</svg>
